#!OML:ASF F:\VICON\USERDATA\INSTALL\rory3\rory3.ASF
:FULLY-SPECIFIED
:DEGREES
99
root -2.64042 17.8212 -5.68138 3.2638 11.504 1.81136
lowerback 2.82473 -0.184751 -3.11051
upperback 0.931694 -0.310839 2.35845
thorax -0.596704 -0.15859 4.18706
lowerneck -20.3967 6.772 -4.12507
upperneck 32.4241 11.8409 -0.311361
head 14.3263 4.5537 2.69101
rclavicle -2.32578e-014 1.27222e-014
rhumerus -36.866 -16.502 -73.047
rradius 29.6491
rwrist 19.744
rhand -19.7007 0.440279
rfingers 7.12502
rthumb 6.62877 -29.436
lclavicle -2.32578e-014 1.27222e-014
lhumerus -9.4032 -13.1117 76.3286
lradius 34.1212
lwrist -10.832
lhand -8.6067 30.8215
lfingers 7.12502
lthumb 17.325 60.0693
rfemur -17.3901 4.93755 12.1946
rtibia 41.0575
rfoot -18.1315 3.97929
rtoes -5.20195
lfemur -7.51348 3.95642 -23.5126
ltibia 23.2557
lfoot -14.8255 7.33281
ltoes -13.9615
100
root -2.67384 17.8217 -5.66306 3.30882 12.0374 1.83175
lowerback 2.43658 -0.168994 -3.30771
upperback 1.11336 -0.284642 2.54526
thorax -0.192624 -0.157993 4.48939
lowerneck -20.5747 6.70443 -4.30223
upperneck 32.4213 11.8535 -0.396525
head 14.3608 4.52184 2.69759
rclavicle 1.32192e-014 -1.11319e-014
rhumerus -36.5981 -16.5794 -72.7591
rradius 29.4662
rwrist 19.6716
rhand -19.3947 0.111833
rfingers 7.12502
rthumb 6.92415 -29.7549
lclavicle 1.32192e-014 -1.11319e-014
lhumerus -7.61596 -12.3906 75.5428
lradius 33.7806
lwrist -11.1177
lhand -8.98829 30.7433
lfingers 7.12502
lthumb 16.9577 60.0231
rfemur -17.0434 5.40798 11.9673
rtibia 40.5005
rfoot -18.7166 2.90157
rtoes 0.509108
lfemur -7.53399 3.78257 -23.3642
ltibia 23.2281
lfoot -14.7576 6.97963
ltoes -13.789
101
root -2.70744 17.8221 -5.64807 3.36007 12.6126 1.84263
lowerback 2.3054 -0.154178 -3.32901
upperback 1.13176 -0.261822 2.60777
thorax -0.102035 -0.149081 4.56523
lowerneck -20.694 6.66602 -4.31706
upperneck 32.5552 11.82 -0.370657
head 14.4448 4.50063 2.71709
rclavicle -2.27608e-014 -1.11319e-014
rhumerus -36.6425 -16.5532 -72.5915
rradius 29.4002
rwrist 19.4676
rhand -19.3817 -0.289147
rfingers 7.12502
rthumb 6.93672 -30.1555
lclavicle -2.27608e-014 -1.11319e-014
lhumerus -6.0837 -11.8511 74.603
lradius 33.6586
lwrist -11.1226
lhand -9.34731 30.2153
lfingers 7.12502
lthumb 16.6121 59.5243
rfemur -16.7056 5.60671 11.84
rtibia 39.8967
rfoot -19.2406 1.17664
rtoes 1.07476
lfemur -7.63263 3.64992 -23.2029
ltibia 23.2731
lfoot -14.7466 6.60177
ltoes -14.1325
102
root -2.74211 17.8226 -5.63726 3.31969 13.1743 1.88278
lowerback 2.43824 -0.181894 -3.25334
upperback 1.05931 -0.300152 2.57364
thorax -0.247724 -0.163343 4.4886
lowerneck -20.61 6.67108 -4.28078
upperneck 32.6513 11.7917 -0.286809
head 14.4647 4.50433 2.73966
rclavicle 1.6201e-014 -7.15625e-015
rhumerus -36.7689 -16.6759 -72.469
rradius 29.1369
rwrist 19.5079
rhand -19.427 -0.289429
rfingers 7.12502
rthumb 6.89296 -30.1572
lclavicle 1.6201e-014 -7.15625e-015
lhumerus -4.77481 -11.3135 73.5478
lradius 33.4892
lwrist -11.1587
lhand -9.52614 30.1134
lfingers 7.12502
lthumb 16.4399 59.4368
rfemur -16.2959 5.64297 11.7758
rtibia 39.2791
rfoot -19.5813 -0.905602
rtoes -2.84917
lfemur -7.65322 3.47699 -23.0685
ltibia 23.3185
lfoot -14.7372 6.27286
ltoes -14.4663
103
root -2.77963 17.824 -5.6214 3.24993 13.6681 1.73549
lowerback 2.45997 -0.214091 -3.05652
upperback 1.01285 -0.338631 2.60386
thorax -0.304937 -0.180031 4.40949
lowerneck -20.4796 6.69186 -4.23217
upperneck 32.7076 11.7821 -0.224165
head 14.4586 4.51765 2.75088
rclavicle 4.57205e-015 -1.90833e-014
rhumerus -36.8621 -16.7947 -72.3675
rradius 28.9014
rwrist 19.6104
rhand -19.0922 -0.221978
rfingers 7.12502
rthumb 7.21612 -30.0789
lclavicle 4.57205e-015 -1.90833e-014
lhumerus -3.45326 -10.8093 72.485
lradius 33.2194
lwrist -11.2239
lhand -9.86494 30.2572
lfingers 7.12502
lthumb 16.1137 59.6073
rfemur -15.9093 5.98132 11.891
rtibia 38.6276
rfoot -19.867 -2.62078
rtoes -3.73874
lfemur -7.64237 3.23588 -22.7248
ltibia 23.3246
lfoot -14.6989 6.06397
ltoes -14.7954
